<svg width="36" height="36" viewBox="0 0 36 36" fill="none" xmlns="http://www.w3.org/2000/svg">
<g filter="url(#filter0_b_694_8191)">
<path d="M7.47266 17.2043C7.47266 15.0594 7.47266 13.9869 8.06833 13.1972C8.664 12.4075 9.69518 12.1129 11.7575 11.5237L15.377 10.4895C16.5863 10.144 17.1909 9.97125 17.8115 9.97125C18.4321 9.97125 19.0368 10.144 20.2461 10.4895L23.8655 11.5237C25.9279 12.1129 26.959 12.4075 27.5547 13.1972C28.1504 13.9869 28.1504 15.0594 28.1504 17.2043V20.1328C28.1504 24.3103 28.1504 26.3991 26.8526 27.6969C25.5548 28.9947 23.466 28.9947 19.2885 28.9947H16.3345C12.157 28.9947 10.0682 28.9947 8.77045 27.6969C7.47266 26.3991 7.47266 24.3103 7.47266 20.1328L7.47266 17.2043Z" fill="url(#paint0_linear_694_8191)"/>
</g>
<g filter="url(#filter1_b_694_8191)">
<path fill-rule="evenodd" clip-rule="evenodd" d="M11.1647 6.83984C9.94112 6.83984 8.94922 8.20862 8.94922 9.89709V16.5879C13.2881 19.8794 15.5719 23.0702 17.8111 23.0866C20.0978 23.1032 22.338 19.8764 26.673 16.5879V9.89709C26.673 8.20862 25.6811 6.83984 24.4575 6.83984H11.1647Z" fill="#819FF1" fill-opacity="0.5"/>
<path d="M9.01714 9.89709C9.01714 9.06559 9.26147 8.31559 9.65312 7.77515C10.0448 7.23462 10.5801 6.90777 11.1647 6.90777H24.4575C25.0421 6.90777 25.5774 7.23462 25.9691 7.77515C26.3607 8.31559 26.6051 9.06559 26.6051 9.89709V16.5542C25.0534 17.7335 23.7687 18.9055 22.6567 19.9198C22.2231 20.3153 21.8158 20.6869 21.4292 21.0256C20.736 21.6328 20.11 22.1339 19.5165 22.482C18.9233 22.83 18.3667 23.0227 17.8116 23.0186C17.2682 23.0147 16.7175 22.8181 16.1265 22.4687C15.5352 22.1191 14.9081 21.6192 14.2121 21.0142C13.8216 20.6746 13.4096 20.3022 12.9709 19.9056C11.8552 18.8968 10.5665 17.7317 9.01714 16.5542V9.89709Z" stroke="url(#paint1_linear_694_8191)" stroke-width="0.13585"/>
</g>
<rect x="22.1878" y="11.3248" width="1.3683" height="8.75321" rx="0.684151" transform="rotate(90 22.1878 11.3248)" fill="url(#paint2_linear_694_8191)" fill-opacity="0.9" stroke="url(#paint3_linear_694_8191)" stroke-width="0.10868"/>
<rect x="22.1878" y="15.756" width="1.3683" height="8.75321" rx="0.684151" transform="rotate(90 22.1878 15.756)" fill="url(#paint4_linear_694_8191)" fill-opacity="0.9" stroke="url(#paint5_linear_694_8191)" stroke-width="0.10868"/>
<path fill-rule="evenodd" clip-rule="evenodd" d="M28.0282 14.5723C28.1112 15.0563 28.1378 15.6428 28.1463 16.3793L18.2771 24.3981C18.0057 24.6185 17.617 24.6185 17.3457 24.3981L7.47656 16.3794C7.48506 15.6429 7.51163 15.0563 7.59467 14.5723L17.8114 22.8734L28.0282 14.5723Z" fill="url(#paint6_linear_694_8191)"/>
<defs>
<filter id="filter0_b_694_8191" x="4.51869" y="7.01723" width="26.5857" height="24.9314" filterUnits="userSpaceOnUse" color-interpolation-filters="sRGB">
<feFlood flood-opacity="0" result="BackgroundImageFix"/>
<feGaussianBlur in="BackgroundImageFix" stdDeviation="1.47698"/>
<feComposite in2="SourceAlpha" operator="in" result="effect1_backgroundBlur_694_8191"/>
<feBlend mode="normal" in="SourceGraphic" in2="effect1_backgroundBlur_694_8191" result="shape"/>
</filter>
<filter id="filter1_b_694_8191" x="5.99526" y="3.88588" width="23.6316" height="22.1545" filterUnits="userSpaceOnUse" color-interpolation-filters="sRGB">
<feFlood flood-opacity="0" result="BackgroundImageFix"/>
<feGaussianBlur in="BackgroundImageFix" stdDeviation="1.47698"/>
<feComposite in2="SourceAlpha" operator="in" result="effect1_backgroundBlur_694_8191"/>
<feBlend mode="normal" in="SourceGraphic" in2="effect1_backgroundBlur_694_8191" result="shape"/>
</filter>
<linearGradient id="paint0_linear_694_8191" x1="3.33265" y1="13.0348" x2="36.3416" y2="39.549" gradientUnits="userSpaceOnUse">
<stop stop-color="#A174FF"/>
<stop offset="0.434713" stop-color="#436AF5"/>
<stop offset="0.725" stop-color="#427CF3"/>
<stop offset="1" stop-color="#411859"/>
</linearGradient>
<linearGradient id="paint1_linear_694_8191" x1="18.5496" y1="4.40284" x2="18.2396" y2="19.831" gradientUnits="userSpaceOnUse">
<stop stop-color="white"/>
<stop offset="0.996024" stop-color="white" stop-opacity="0"/>
</linearGradient>
<linearGradient id="paint2_linear_694_8191" x1="23.0648" y1="21.5295" x2="23.0648" y2="9.6337" gradientUnits="userSpaceOnUse">
<stop stop-color="white"/>
<stop offset="1" stop-color="white" stop-opacity="0"/>
</linearGradient>
<linearGradient id="paint3_linear_694_8191" x1="19.3056" y1="23.1302" x2="25.6905" y2="9.54526" gradientUnits="userSpaceOnUse">
<stop stop-color="white"/>
<stop offset="1" stop-color="white" stop-opacity="0"/>
</linearGradient>
<linearGradient id="paint4_linear_694_8191" x1="21.7179" y1="24.6389" x2="23.0397" y2="13.918" gradientUnits="userSpaceOnUse">
<stop stop-color="white"/>
<stop offset="1" stop-color="white" stop-opacity="0"/>
</linearGradient>
<linearGradient id="paint5_linear_694_8191" x1="20.1728" y1="25.1161" x2="25.3351" y2="15.8783" gradientUnits="userSpaceOnUse">
<stop stop-color="white"/>
<stop offset="1" stop-color="white" stop-opacity="0"/>
</linearGradient>
<linearGradient id="paint6_linear_694_8191" x1="3.33816" y1="16.2586" x2="19.3941" y2="41.0338" gradientUnits="userSpaceOnUse">
<stop stop-color="#A174FF"/>
<stop offset="0.434713" stop-color="#436AF5"/>
<stop offset="0.725" stop-color="#427CF3"/>
<stop offset="1" stop-color="#411859"/>
</linearGradient>
</defs>
</svg>
