<svg width="36" height="36" viewBox="0 0 36 36" fill="none" xmlns="http://www.w3.org/2000/svg">
<g filter="url(#filter0_b_694_13068)">
<path fill-rule="evenodd" clip-rule="evenodd" d="M12.6428 10.931V10.9286C12.6428 8.75888 14.4017 7 16.5713 7H19.4285C21.5982 7 23.3571 8.75888 23.3571 10.9286V10.931C25.3527 10.9456 26.4455 11.0478 27.1632 11.7654C28 12.6023 28 13.9491 28 16.6429V19.5H8V16.6429C8 13.9491 8 12.6023 8.83684 11.7654C9.55448 11.0478 10.6472 10.9456 12.6428 10.931ZM14.7856 10.9286C14.7856 9.94235 15.5851 9.14286 16.5713 9.14286H19.4285C20.4147 9.14286 21.2142 9.94235 21.2142 10.9286L14.7856 10.9286Z" fill="url(#paint0_linear_694_13068)"/>
</g>
<g filter="url(#filter1_b_694_13068)">
<path d="M8 17.5433C8 15.7719 8 14.8862 8.5503 14.3359C9.1006 13.7856 9.98629 13.7856 11.7577 13.7856H24.2423C26.0137 13.7856 26.8994 13.7856 27.4497 14.3359C28 14.8862 28 15.7719 28 17.5433V22.4348C28 25.0919 28 26.4205 27.1745 27.2459C26.3491 28.0713 25.0206 28.0713 22.3635 28.0713H13.6365C10.9794 28.0713 9.65089 28.0713 8.82545 27.2459C8 26.4205 8 25.0919 8 22.4348V17.5433Z" fill="#819FF1" fill-opacity="0.5"/>
<path d="M8.04513 17.5433C8.04513 16.6563 8.04522 15.9957 8.11351 15.4877C8.18163 14.9811 8.31684 14.6332 8.58221 14.3679C8.84758 14.1025 9.19546 13.9673 9.70209 13.8992C10.21 13.8309 10.8707 13.8308 11.7577 13.8308H24.2423C25.1293 13.8308 25.79 13.8309 26.2979 13.8992C26.8045 13.9673 27.1524 14.1025 27.4178 14.3679C27.6831 14.6332 27.8184 14.9811 27.8865 15.4877C27.9548 15.9957 27.9549 16.6563 27.9549 17.5433V22.4348C27.9549 23.7647 27.9548 24.7575 27.8521 25.5212C27.7496 26.2837 27.5456 26.8111 27.1426 27.214C26.7397 27.6169 26.2123 27.8209 25.4499 27.9234C24.6861 28.0261 23.6933 28.0262 22.3635 28.0262H13.6365C12.3067 28.0262 11.3139 28.0261 10.5501 27.9234C9.78768 27.8209 9.2603 27.6169 8.85736 27.214C8.45442 26.8111 8.25042 26.2837 8.14791 25.5212C8.04522 24.7575 8.04513 23.7647 8.04513 22.4348V17.5433Z" stroke="url(#paint1_linear_694_13068)" stroke-width="0.0902573"/>
</g>
<g filter="url(#filter2_b_694_13068)">
<rect x="20.9258" y="16.542" width="1.37254" height="5.76467" rx="0.68627" transform="rotate(90 20.9258 16.542)" fill="url(#paint2_linear_694_13068)" fill-opacity="0.9"/>
<rect x="20.8897" y="16.5781" width="1.30033" height="5.69247" rx="0.650167" transform="rotate(90 20.8897 16.5781)" stroke="url(#paint3_linear_694_13068)" stroke-width="0.0722058"/>
</g>
<defs>
<filter id="filter0_b_694_13068" x="6.12116" y="5.12116" width="23.7577" height="16.2577" filterUnits="userSpaceOnUse" color-interpolation-filters="sRGB">
<feFlood flood-opacity="0" result="BackgroundImageFix"/>
<feGaussianBlur in="BackgroundImageFix" stdDeviation="0.939418"/>
<feComposite in2="SourceAlpha" operator="in" result="effect1_backgroundBlur_694_13068"/>
<feBlend mode="normal" in="SourceGraphic" in2="effect1_backgroundBlur_694_13068" result="shape"/>
</filter>
<filter id="filter1_b_694_13068" x="6.12116" y="11.9068" width="23.7577" height="18.0433" filterUnits="userSpaceOnUse" color-interpolation-filters="sRGB">
<feFlood flood-opacity="0" result="BackgroundImageFix"/>
<feGaussianBlur in="BackgroundImageFix" stdDeviation="0.939418"/>
<feComposite in2="SourceAlpha" operator="in" result="effect1_backgroundBlur_694_13068"/>
<feBlend mode="normal" in="SourceGraphic" in2="effect1_backgroundBlur_694_13068" result="shape"/>
</filter>
<filter id="filter2_b_694_13068" x="13.1985" y="14.5794" width="9.68982" height="5.29773" filterUnits="userSpaceOnUse" color-interpolation-filters="sRGB">
<feFlood flood-opacity="0" result="BackgroundImageFix"/>
<feGaussianBlur in="BackgroundImageFix" stdDeviation="0.981293"/>
<feComposite in2="SourceAlpha" operator="in" result="effect1_backgroundBlur_694_13068"/>
<feBlend mode="normal" in="SourceGraphic" in2="effect1_backgroundBlur_694_13068" result="shape"/>
</filter>
<linearGradient id="paint0_linear_694_13068" x1="3.99569" y1="9.10983" x2="25.6634" y2="34.9678" gradientUnits="userSpaceOnUse">
<stop stop-color="#A174FF"/>
<stop offset="0.434713" stop-color="#436AF5"/>
<stop offset="0.725" stop-color="#427CF3"/>
<stop offset="1" stop-color="#411859"/>
</linearGradient>
<linearGradient id="paint1_linear_694_13068" x1="6.57143" y1="15.0843" x2="30.0823" y2="32.0794" gradientUnits="userSpaceOnUse">
<stop stop-color="white"/>
<stop offset="1" stop-color="white" stop-opacity="0"/>
</linearGradient>
<linearGradient id="paint2_linear_694_13068" x1="23.3273" y1="15.8616" x2="22.4393" y2="21.4796" gradientUnits="userSpaceOnUse">
<stop stop-color="white" stop-opacity="0"/>
<stop offset="0.979167" stop-color="white"/>
</linearGradient>
<linearGradient id="paint3_linear_694_13068" x1="21.6121" y1="16.542" x2="21.6121" y2="22.3067" gradientUnits="userSpaceOnUse">
<stop stop-color="white" stop-opacity="0"/>
<stop offset="1" stop-color="white"/>
</linearGradient>
</defs>
</svg>
