<svg width="36" height="36" viewBox="0 0 36 36" fill="none" xmlns="http://www.w3.org/2000/svg">
<circle cx="18.068" cy="23.837" r="5.24376" fill="url(#paint0_linear_694_13011)"/>
<g filter="url(#filter0_b_694_13011)">
<mask id="path-2-inside-1_694_13011" fill="white">
<path fill-rule="evenodd" clip-rule="evenodd" d="M15.3738 9.89385C15.3738 8.40619 16.5798 7.2002 18.0675 7.2002C19.5551 7.2002 20.7611 8.40619 20.7611 9.89385C20.7611 10.5849 20.5009 11.2151 20.0732 11.6919C22.9045 12.3329 25.0204 14.6959 25.3455 17.5813L25.8111 21.7137C25.8225 21.8151 25.8282 21.9157 25.8284 22.0152H26.0497C26.848 22.0152 27.4952 22.6624 27.4952 23.4608C27.4952 24.1777 26.9689 24.7877 26.2585 24.8847C20.1303 25.7218 16.1672 25.7147 9.88062 24.8799C9.16891 24.7854 8.63965 24.1755 8.63965 23.4575C8.63965 22.661 9.28539 22.0152 10.082 22.0152H10.3069C10.3071 21.9157 10.3127 21.8151 10.3242 21.7137L10.7898 17.5813C11.1149 14.696 13.2307 12.3331 16.0618 11.692C15.634 11.2151 15.3738 10.5849 15.3738 9.89385Z"/>
</mask>
<path fill-rule="evenodd" clip-rule="evenodd" d="M15.3738 9.89385C15.3738 8.40619 16.5798 7.2002 18.0675 7.2002C19.5551 7.2002 20.7611 8.40619 20.7611 9.89385C20.7611 10.5849 20.5009 11.2151 20.0732 11.6919C22.9045 12.3329 25.0204 14.6959 25.3455 17.5813L25.8111 21.7137C25.8225 21.8151 25.8282 21.9157 25.8284 22.0152H26.0497C26.848 22.0152 27.4952 22.6624 27.4952 23.4608C27.4952 24.1777 26.9689 24.7877 26.2585 24.8847C20.1303 25.7218 16.1672 25.7147 9.88062 24.8799C9.16891 24.7854 8.63965 24.1755 8.63965 23.4575C8.63965 22.661 9.28539 22.0152 10.082 22.0152H10.3069C10.3071 21.9157 10.3127 21.8151 10.3242 21.7137L10.7898 17.5813C11.1149 14.696 13.2307 12.3331 16.0618 11.692C15.634 11.2151 15.3738 10.5849 15.3738 9.89385Z" fill="#819FF1" fill-opacity="0.5"/>
<path d="M20.0732 11.6919L19.9817 11.6098C19.9526 11.6423 19.9428 11.6877 19.9561 11.7292C19.9693 11.7708 20.0035 11.8022 20.046 11.8118L20.0732 11.6919ZM25.3455 17.5813L25.4676 17.5676L25.3455 17.5813ZM25.8111 21.7137L25.9333 21.6999L25.8111 21.7137ZM25.8284 22.0152L25.7055 22.0154C25.7056 22.0832 25.7606 22.1381 25.8284 22.1381V22.0152ZM26.2585 24.8847L26.2752 25.0065L26.2585 24.8847ZM9.88062 24.8799L9.86444 25.0018H9.86444L9.88062 24.8799ZM10.3069 22.0152V22.1381C10.3747 22.1381 10.4297 22.0832 10.4298 22.0154L10.3069 22.0152ZM10.3242 21.7137L10.4463 21.7274L10.3242 21.7137ZM10.7898 17.5813L10.6676 17.5676L10.7898 17.5813ZM16.0618 11.692L16.089 11.8119C16.1315 11.8022 16.1657 11.7708 16.179 11.7293C16.1922 11.6878 16.1824 11.6423 16.1533 11.6099L16.0618 11.692ZM18.0675 7.07727C16.5119 7.07727 15.2509 8.3383 15.2509 9.89385H15.4968C15.4968 8.47408 16.6477 7.32312 18.0675 7.32312V7.07727ZM20.8841 9.89385C20.8841 8.3383 19.623 7.07727 18.0675 7.07727V7.32312C19.4873 7.32312 20.6382 8.47408 20.6382 9.89385H20.8841ZM20.1647 11.774C20.6119 11.2755 20.8841 10.6163 20.8841 9.89385H20.6382C20.6382 10.5534 20.39 11.1547 19.9817 11.6098L20.1647 11.774ZM25.4676 17.5676C25.1367 14.6302 22.9827 12.2246 20.1003 11.572L20.046 11.8118C22.8263 12.4413 24.9041 14.7617 25.2233 17.5951L25.4676 17.5676ZM25.9333 21.6999L25.4676 17.5676L25.2233 17.5951L25.689 21.7274L25.9333 21.6999ZM25.9513 22.015C25.9511 21.911 25.9452 21.8058 25.9333 21.6999L25.689 21.7274C25.6999 21.8244 25.7053 21.9204 25.7055 22.0154L25.9513 22.015ZM26.0497 21.8923H25.8284V22.1381H26.0497V21.8923ZM27.6182 23.4608C27.6182 22.5945 26.9159 21.8923 26.0497 21.8923V22.1381C26.7801 22.1381 27.3723 22.7303 27.3723 23.4608H27.6182ZM26.2752 25.0065C27.0471 24.9011 27.6182 24.2384 27.6182 23.4608H27.3723C27.3723 24.117 26.8906 24.6743 26.2419 24.7629L26.2752 25.0065ZM9.86444 25.0018C16.1615 25.8379 20.1357 25.8451 26.2752 25.0065L26.2419 24.7629C20.125 25.5984 16.1729 25.5914 9.8968 24.7581L9.86444 25.0018ZM8.51672 23.4575C8.51672 24.2365 9.09102 24.8991 9.86444 25.0018L9.8968 24.7581C9.24679 24.6717 8.76257 24.1145 8.76257 23.4575H8.51672ZM10.082 21.8923C9.2175 21.8923 8.51672 22.5931 8.51672 23.4575H8.76257C8.76257 22.7288 9.35328 22.1381 10.082 22.1381V21.8923ZM10.3069 21.8923H10.082V22.1381H10.3069V21.8923ZM10.202 21.6999C10.1901 21.8058 10.1842 21.911 10.184 22.015L10.4298 22.0154C10.43 21.9204 10.4354 21.8244 10.4463 21.7274L10.202 21.6999ZM10.6676 17.5676L10.202 21.6999L10.4463 21.7274L10.9119 17.5951L10.6676 17.5676ZM16.0347 11.5721C13.1525 12.2248 10.9986 14.6303 10.6676 17.5676L10.9119 17.5951C11.2312 14.7618 13.3088 12.4414 16.089 11.8119L16.0347 11.5721ZM15.2509 9.89385C15.2509 10.6163 15.5231 11.2755 15.9703 11.7741L16.1533 11.6099C15.745 11.1547 15.4968 10.5534 15.4968 9.89385H15.2509Z" fill="url(#paint1_linear_694_13011)" mask="url(#path-2-inside-1_694_13011)"/>
</g>
<defs>
<filter id="filter0_b_694_13011" x="5.94599" y="4.50654" width="24.2428" height="23.6964" filterUnits="userSpaceOnUse" color-interpolation-filters="sRGB">
<feFlood flood-opacity="0" result="BackgroundImageFix"/>
<feGaussianBlur in="BackgroundImageFix" stdDeviation="1.34683"/>
<feComposite in2="SourceAlpha" operator="in" result="effect1_backgroundBlur_694_13011"/>
<feBlend mode="normal" in="SourceGraphic" in2="effect1_backgroundBlur_694_13011" result="shape"/>
</filter>
<linearGradient id="paint0_linear_694_13011" x1="10.7245" y1="20.3634" x2="28.4223" y2="33.5637" gradientUnits="userSpaceOnUse">
<stop stop-color="#A174FF"/>
<stop offset="0.434713" stop-color="#436AF5"/>
<stop offset="0.725" stop-color="#427CF3"/>
<stop offset="1" stop-color="#411859"/>
</linearGradient>
<linearGradient id="paint1_linear_694_13011" x1="12.0067" y1="12.5875" x2="23.4547" y2="25.3824" gradientUnits="userSpaceOnUse">
<stop stop-color="white"/>
<stop offset="1" stop-color="white" stop-opacity="0"/>
</linearGradient>
</defs>
</svg>
