<svg width="21" height="20" viewBox="0 0 21 20" fill="none" xmlns="http://www.w3.org/2000/svg">
<rect x="0.7" y="0.2" width="19.6" height="19.6" rx="9.8" stroke="#C1C7D1" stroke-width="0.4"/>
<path d="M10.5268 3.75C7.29059 3.75 4.66699 6.19723 4.66699 9.21617C4.66699 11.4454 5.5925 12.5099 6.8608 13.4804L6.86695 13.4831V16.0996C6.86695 16.2228 7.0067 16.2937 7.10514 16.2202L9.32707 14.5556L9.37453 14.5769C9.7472 14.646 10.1322 14.6823 10.5259 14.6823C13.7621 14.6823 16.3857 12.2351 16.3857 9.21617C16.3857 6.19723 13.763 3.75 10.5268 3.75ZM8.5624 10.6007C9.13722 10.6007 9.62854 10.2541 9.7762 9.71784H10.6261C10.4187 10.7487 9.62239 11.425 8.56328 11.425C7.3319 11.425 6.35541 10.4987 6.35541 9.20996C6.35541 7.9212 7.3319 6.99495 8.56328 6.99495C9.63382 6.99495 10.4345 7.68454 10.6323 8.7331H9.78499C9.65579 8.16317 9.14777 7.80774 8.56328 7.80774C7.73533 7.80774 7.18424 8.40338 7.18424 9.21085C7.18424 10.0183 7.81092 10.6024 8.56328 10.6024M14.1603 11.3399H13.3816V9.56894C13.3816 9.16121 13.146 8.94228 12.7839 8.94228C12.3796 8.94228 12.1203 9.19135 12.1203 9.69657V11.3399H11.3416V7.00825H12.1203V8.63737C12.3075 8.35108 12.609 8.21104 13.0194 8.21104C13.3517 8.21104 13.6233 8.32094 13.8342 8.54608C14.0513 8.77121 14.1603 9.07523 14.1603 9.47144V11.3399Z" fill="#505D6F"/>
</svg>
