<svg width="16" height="16" viewBox="0 0 16 16" fill="none" xmlns="http://www.w3.org/2000/svg">
<g clip-path="url(#clip0_233_839)">
<path d="M6 7H10.25" stroke="#878787" stroke-linecap="round" stroke-linejoin="round"/>
<path d="M6 9H10.25" stroke="#878787" stroke-linecap="round" stroke-linejoin="round"/>
<path d="M8.25 13.5H3C2.86739 13.5 2.74021 13.4473 2.64645 13.3536C2.55268 13.2598 2.5 13.1326 2.5 13V7.75C2.5 6.22501 3.1058 4.76247 4.18414 3.68414C5.26247 2.6058 6.72501 2 8.25 2C9.0051 2 9.75281 2.14873 10.4504 2.43769C11.1481 2.72666 11.7819 3.1502 12.3159 3.68414C12.8498 4.21807 13.2733 4.85195 13.5623 5.54957C13.8513 6.24719 14 6.9949 14 7.75C14 8.5051 13.8513 9.25281 13.5623 9.95043C13.2733 10.6481 12.8498 11.2819 12.3159 11.8159C11.7819 12.3498 11.1481 12.7733 10.4504 13.0623C9.75281 13.3513 9.0051 13.5 8.25 13.5Z" stroke="#878787" stroke-linecap="round" stroke-linejoin="round"/>
</g>
<defs>
<clipPath id="clip0_233_839">
<rect width="16" height="16" fill="white"/>
</clipPath>
</defs>
</svg>
