<svg width="20" height="20" viewBox="0 0 20 20" fill="none" xmlns="http://www.w3.org/2000/svg">
<rect width="20" height="20" rx="10" fill="#535353"/>
<path d="M10.0263 3.75C6.7901 3.75 4.1665 6.19723 4.1665 9.21616C4.1665 11.4454 5.09202 12.5099 6.36031 13.4804L6.36646 13.4831V16.0996C6.36646 16.2228 6.50621 16.2937 6.60465 16.2202L8.82658 14.5556L8.87404 14.5769C9.24671 14.646 9.63168 14.6823 10.0254 14.6823C13.2617 14.6823 15.8853 12.2351 15.8853 9.21616C15.8853 6.19723 13.2625 3.75 10.0263 3.75ZM8.06191 10.6007C8.63673 10.6007 9.12805 10.2541 9.27571 9.71784H10.1256C9.91821 10.7487 9.1219 11.425 8.06279 11.425C6.83141 11.425 5.85493 10.4987 5.85493 9.20996C5.85493 7.9212 6.83141 6.99495 8.06279 6.99495C9.13333 6.99495 9.93403 7.68454 10.1318 8.7331H9.2845C9.1553 8.16317 8.64728 7.80774 8.06279 7.80774C7.23484 7.80774 6.68375 8.40338 6.68375 9.21085C6.68375 10.0183 7.31043 10.6024 8.06279 10.6024M13.6598 11.3399H12.8811V9.56894C12.8811 9.16121 12.6455 8.94228 12.2834 8.94228C11.8791 8.94228 11.6198 9.19135 11.6198 9.69657V11.3399H10.8411V7.00825H11.6198V8.63737C11.807 8.35108 12.1085 8.21104 12.519 8.21104C12.8512 8.21104 13.1228 8.32094 13.3337 8.54608C13.5508 8.77121 13.6598 9.07523 13.6598 9.47144V11.3399Z" fill="white"/>
</svg>
