<svg width="20" height="20" viewBox="0 0 20 20" fill="none" xmlns="http://www.w3.org/2000/svg">
<rect width="20" height="20" rx="10" fill="#535353"/>
<path d="M11.7913 9.99999C11.7913 10.3542 11.6862 10.7005 11.4894 10.9951C11.2925 11.2897 11.0127 11.5194 10.6853 11.655C10.3579 11.7906 9.99769 11.826 9.65014 11.7569C9.30259 11.6878 8.98334 11.5171 8.73277 11.2666C8.48221 11.016 8.31157 10.6968 8.24243 10.3492C8.1733 10.0017 8.20878 9.64142 8.34439 9.31403C8.48 8.98665 8.70964 8.70683 9.00428 8.50996C9.29879 8.31317 9.64503 8.2081 9.99923 8.20801C10.474 8.20961 10.9289 8.39893 11.2647 8.73467C11.6004 9.07039 11.7897 9.52524 11.7913 9.99999ZM16.2184 7.13509V12.8643C16.2184 13.7538 15.865 14.607 15.236 15.236C14.607 15.865 13.7538 16.2184 12.8643 16.2184H7.13509C6.24551 16.2184 5.39237 15.865 4.76334 15.236C4.13431 14.607 3.78092 13.7538 3.78092 12.8643V7.13509C3.78092 6.24551 4.13431 5.39237 4.76334 4.76334C5.39237 4.13431 6.24551 3.78092 7.13509 3.78092H12.8643C13.7538 3.78092 14.607 4.13431 15.236 4.76334C15.865 5.39237 16.2184 6.24551 16.2184 7.13509ZM13.4163 9.99967C13.4163 9.32392 13.216 8.66334 12.8405 8.10148C12.4651 7.53961 11.9315 7.10169 11.3072 6.84309C10.6829 6.58449 9.99588 6.51683 9.33312 6.64866C8.67035 6.78049 8.06156 7.1059 7.58373 7.58373C7.1059 8.06156 6.78049 8.67035 6.64866 9.33312C6.51683 9.99588 6.58449 10.6829 6.84309 11.3072C7.10169 11.9315 7.53961 12.4651 8.10148 12.8405C8.66334 13.216 9.32392 13.4163 9.99967 13.4163C10.9058 13.4163 11.7749 13.0564 12.4156 12.4156C13.0564 11.7749 13.4163 10.9058 13.4163 9.99967Z" stroke="white" stroke-width="0.583333"/>
<circle cx="12.9167" cy="6.24967" r="0.416667" fill="white"/>
</svg>
