<svg width="6" height="19" viewBox="0 0 6 19" fill="none" xmlns="http://www.w3.org/2000/svg">
<g clip-path="url(#clip0_551_15697)">
<path d="M0.613947 13.51C0.535614 13.4373 0.473124 13.3493 0.430389 13.2514C0.387655 13.1535 0.365597 13.0478 0.365597 12.941C0.365597 12.8341 0.387655 12.7285 0.430389 12.6305C0.473124 12.5326 0.535614 12.4446 0.613947 12.372L3.70895 9.49896L0.612947 6.62596C0.462171 6.4858 0.373252 6.29147 0.36575 6.08575C0.358249 5.88002 0.43278 5.67974 0.572947 5.52896C0.713113 5.37819 0.907435 5.28927 1.11316 5.28177C1.31889 5.27426 1.51917 5.3488 1.66995 5.48896L5.20795 8.76596C5.30913 8.85959 5.38987 8.97312 5.44508 9.09943C5.5003 9.22574 5.5288 9.36211 5.5288 9.49996C5.5288 9.63782 5.5003 9.77418 5.44508 9.90049C5.38987 10.0268 5.30913 10.1403 5.20795 10.234L1.66895 13.509C1.52547 13.6419 1.33707 13.7158 1.14145 13.7158C0.945825 13.7158 0.757421 13.6429 0.613947 13.51Z" fill="#304AD6"/>
</g>
<defs>
<clipPath id="clip0_551_15697">
<rect width="6" height="9" fill="white" transform="translate(0 5)"/>
</clipPath>
</defs>
</svg>
