<svg width="28" height="28" viewBox="0 0 28 28" fill="none" xmlns="http://www.w3.org/2000/svg">
<rect x="18.0425" y="2.57227" width="7.53155" height="8.78681" rx="2.37396" transform="rotate(42.7275 18.0425 2.57227)" fill="url(#paint0_linear_502_10792)"/>
<g filter="url(#filter0_b_502_10792)">
<mask id="path-2-inside-1_502_10792" fill="white">
<path d="M14.6357 6.26098C15.1061 5.75172 15.9002 5.7202 16.4095 6.19059L20.0979 9.59742C20.6071 10.0678 20.6386 10.862 20.1683 11.3712L12.9747 19.1593C12.666 19.4936 12.2722 19.7376 11.8355 19.8654L9.69306 20.4922L6.37354 17.4261L6.82852 15.2406C6.92129 14.7952 7.13338 14.3833 7.44211 14.0491L14.6357 6.26098Z"/>
</mask>
<path d="M14.6357 6.26098C15.1061 5.75172 15.9002 5.7202 16.4095 6.19059L20.0979 9.59742C20.6071 10.0678 20.6386 10.862 20.1683 11.3712L12.9747 19.1593C12.666 19.4936 12.2722 19.7376 11.8355 19.8654L9.69306 20.4922L6.37354 17.4261L6.82852 15.2406C6.92129 14.7952 7.13338 14.3833 7.44211 14.0491L14.6357 6.26098Z" fill="#819FF1" fill-opacity="0.5"/>
<path d="M16.4095 6.19059L16.334 6.27228V6.27228L16.4095 6.19059ZM14.6357 6.26098L14.554 6.18552L14.6357 6.26098ZM20.0979 9.59742L20.0224 9.67911L20.0979 9.59742ZM20.1683 11.3712L20.25 11.4467L20.1683 11.3712ZM12.9747 19.1593L12.893 19.0839L12.9747 19.1593ZM11.8355 19.8654L11.8667 19.9721L11.8355 19.8654ZM9.69306 20.4922L9.61761 20.5739L9.66386 20.6166L9.72429 20.599L9.69306 20.4922ZM6.37354 17.4261L6.26467 17.4034L6.25183 17.4651L6.29808 17.5078L6.37354 17.4261ZM6.82852 15.2406L6.71965 15.218L6.71965 15.218L6.82852 15.2406ZM7.44211 14.0491L7.36042 13.9736H7.36042L7.44211 14.0491ZM16.4849 6.1089C15.9306 5.59684 15.066 5.63115 14.554 6.18552L14.7174 6.33643C15.1461 5.87229 15.8699 5.84356 16.334 6.27228L16.4849 6.1089ZM20.1733 9.51573L16.4849 6.1089L16.334 6.27228L20.0224 9.67911L20.1733 9.51573ZM20.25 11.4467C20.762 10.8923 20.7277 10.0278 20.1733 9.51573L20.0224 9.67911C20.4866 10.1078 20.5153 10.8316 20.0866 11.2958L20.25 11.4467ZM13.0564 19.2348L20.25 11.4467L20.0866 11.2958L12.893 19.0839L13.0564 19.2348ZM11.8667 19.9721C12.3228 19.8387 12.734 19.5838 13.0564 19.2348L12.893 19.0839C12.598 19.4033 12.2216 19.6365 11.8043 19.7587L11.8667 19.9721ZM9.72429 20.599L11.8667 19.9721L11.8043 19.7587L9.66184 20.3855L9.72429 20.599ZM9.76852 20.4105L6.44899 17.3444L6.29808 17.5078L9.61761 20.5739L9.76852 20.4105ZM7.36042 13.9736C7.03801 14.3227 6.81653 14.7528 6.71965 15.218L6.93739 15.2633C7.02605 14.8376 7.22874 14.444 7.5238 14.1245L7.36042 13.9736ZM14.554 6.18552L7.36042 13.9736L7.5238 14.1245L14.7174 6.33643L14.554 6.18552ZM6.4824 17.4488L6.93739 15.2633L6.71965 15.218L6.26467 17.4034L6.4824 17.4488Z" fill="url(#paint1_linear_502_10792)" mask="url(#path-2-inside-1_502_10792)"/>
</g>
<g filter="url(#filter1_b_502_10792)">
<rect width="5.02103" height="1.25526" rx="0.62763" transform="matrix(-0.734589 -0.678512 -0.678513 0.734589 19.2461 10.5195)" fill="url(#paint2_linear_502_10792)" fill-opacity="0.9"/>
<rect x="-0.062857" y="0.00249437" width="4.93207" height="1.1663" rx="0.583148" transform="matrix(-0.734589 -0.678512 -0.678513 0.734589 19.1388 10.4775)" stroke="url(#paint3_linear_502_10792)" stroke-width="0.0889632"/>
</g>
<path d="M9.69309 20.4919L6.37354 17.4258L5.69145 20.7011C5.59485 21.1649 6.0274 21.5645 6.48215 21.4314L9.69309 20.4919Z" fill="url(#paint4_linear_502_10792)"/>
<defs>
<filter id="filter0_b_502_10792" x="3.99958" y="3.48347" width="18.8758" height="19.3827" filterUnits="userSpaceOnUse" color-interpolation-filters="sRGB">
<feFlood flood-opacity="0" result="BackgroundImageFix"/>
<feGaussianBlur in="BackgroundImageFix" stdDeviation="1.18698"/>
<feComposite in2="SourceAlpha" operator="in" result="effect1_backgroundBlur_502_10792"/>
<feBlend mode="normal" in="SourceGraphic" in2="effect1_backgroundBlur_502_10792" result="shape"/>
</filter>
<filter id="filter1_b_502_10792" x="10.2174" y="2.62416" width="13.5173" height="13.3064" filterUnits="userSpaceOnUse" color-interpolation-filters="sRGB">
<feFlood flood-opacity="0" result="BackgroundImageFix"/>
<feGaussianBlur in="BackgroundImageFix" stdDeviation="2.37396"/>
<feComposite in2="SourceAlpha" operator="in" result="effect1_backgroundBlur_502_10792"/>
<feBlend mode="normal" in="SourceGraphic" in2="effect1_backgroundBlur_502_10792" result="shape"/>
</filter>
<linearGradient id="paint0_linear_502_10792" x1="15.851" y1="3.51601" x2="30.5638" y2="8.04653" gradientUnits="userSpaceOnUse">
<stop stop-color="#7761E0"/>
<stop offset="0.434713" stop-color="#436AF5"/>
<stop offset="0.725" stop-color="#08AFE4" stop-opacity="0.73"/>
<stop offset="1" stop-color="#411859"/>
</linearGradient>
<linearGradient id="paint1_linear_502_10792" x1="5.04182" y1="6.11148" x2="15.2556" y2="19.8796" gradientUnits="userSpaceOnUse">
<stop stop-color="white"/>
<stop offset="0.765625" stop-color="white" stop-opacity="0"/>
</linearGradient>
<linearGradient id="paint2_linear_502_10792" x1="5.11691" y1="0.699925" x2="-2.13035" y2="0.515349" gradientUnits="userSpaceOnUse">
<stop stop-color="#FCFDFE"/>
<stop offset="1" stop-color="#FCFDFE" stop-opacity="0"/>
</linearGradient>
<linearGradient id="paint3_linear_502_10792" x1="4.966" y1="0.863303" x2="2.51052" y2="1.25526" gradientUnits="userSpaceOnUse">
<stop stop-color="white"/>
<stop offset="1" stop-color="white" stop-opacity="0"/>
</linearGradient>
<linearGradient id="paint4_linear_502_10792" x1="5.17638" y1="16.784" x2="4.07809" y2="24.9628" gradientUnits="userSpaceOnUse">
<stop stop-color="#7761E0"/>
<stop offset="0.434713" stop-color="#436AF5"/>
<stop offset="0.725" stop-color="#08AFE4" stop-opacity="0.73"/>
<stop offset="1" stop-color="#411859"/>
</linearGradient>
</defs>
</svg>
