<svg width="100" height="100" viewBox="0 0 100 100" fill="none" xmlns="http://www.w3.org/2000/svg">
<circle cx="50.1876" cy="66.2135" r="14.566" fill="url(#paint0_linear_534_10343)"/>
<g filter="url(#filter0_b_534_10343)">
<mask id="path-2-inside-1_534_10343" fill="white">
<path fill-rule="evenodd" clip-rule="evenodd" d="M42.7057 27.4824C42.7057 23.35 46.0556 20 50.188 20C54.3204 20 57.6704 23.35 57.6704 27.4824C57.6704 29.4019 56.9476 31.1526 55.7593 32.4772C63.624 34.2578 69.5014 40.8217 70.4045 48.8366L71.6979 60.3154C71.7296 60.597 71.7453 60.8765 71.7458 61.1528H72.3612C74.5789 61.1528 76.3766 62.9506 76.3766 65.1682C76.3766 67.1597 74.9145 68.8542 72.9414 69.1237C55.9185 71.4488 44.9098 71.4292 27.4471 69.1103C25.4702 68.8478 24 67.1536 24 65.1592C24 62.9466 25.7937 61.1528 28.0064 61.1528H28.6306C28.6311 60.8765 28.6469 60.597 28.6786 60.3154L29.972 48.8366C30.875 40.8218 36.7523 34.258 44.6168 32.4772C43.4285 31.1527 42.7057 29.4019 42.7057 27.4824Z"/>
</mask>
<path fill-rule="evenodd" clip-rule="evenodd" d="M42.7057 27.4824C42.7057 23.35 46.0556 20 50.188 20C54.3204 20 57.6704 23.35 57.6704 27.4824C57.6704 29.4019 56.9476 31.1526 55.7593 32.4772C63.624 34.2578 69.5014 40.8217 70.4045 48.8366L71.6979 60.3154C71.7296 60.597 71.7453 60.8765 71.7458 61.1528H72.3612C74.5789 61.1528 76.3766 62.9506 76.3766 65.1682C76.3766 67.1597 74.9145 68.8542 72.9414 69.1237C55.9185 71.4488 44.9098 71.4292 27.4471 69.1103C25.4702 68.8478 24 67.1536 24 65.1592C24 62.9466 25.7937 61.1528 28.0064 61.1528H28.6306C28.6311 60.8765 28.6469 60.597 28.6786 60.3154L29.972 48.8366C30.875 40.8218 36.7523 34.258 44.6168 32.4772C43.4285 31.1527 42.7057 29.4019 42.7057 27.4824Z" fill="#819FF1" fill-opacity="0.5"/>
<path d="M55.7593 32.4772L55.5051 32.2492C55.4243 32.3393 55.3972 32.4655 55.4339 32.5808C55.4707 32.6962 55.5658 32.7835 55.6839 32.8102L55.7593 32.4772ZM70.4045 48.8366L70.7438 48.7984L70.4045 48.8366ZM71.6979 60.3154L71.3586 60.3536V60.3536L71.6979 60.3154ZM71.7458 61.1528L71.4044 61.1534C71.4047 61.3418 71.5575 61.4943 71.7458 61.4943V61.1528ZM72.9414 69.1237L72.9876 69.462L72.9414 69.1237ZM27.4471 69.1103L27.4022 69.4488H27.4022L27.4471 69.1103ZM28.6306 61.1528V61.4943C28.819 61.4943 28.9718 61.3418 28.9721 61.1534L28.6306 61.1528ZM28.6786 60.3154L28.3393 60.2771H28.3393L28.6786 60.3154ZM29.972 48.8366L29.6327 48.7984L29.972 48.8366ZM44.6168 32.4772L44.6922 32.8103C44.8103 32.7835 44.9054 32.6963 44.9422 32.5809C44.9789 32.4655 44.9519 32.3393 44.871 32.2492L44.6168 32.4772ZM50.188 19.6585C45.867 19.6585 42.3642 23.1614 42.3642 27.4824H43.0471C43.0471 23.5386 46.2442 20.3415 50.188 20.3415V19.6585ZM58.0119 27.4824C58.0119 23.1614 54.509 19.6585 50.188 19.6585V20.3415C54.1318 20.3415 57.3289 23.5386 57.3289 27.4824H58.0119ZM56.0135 32.7052C57.2558 31.3204 58.0119 29.4893 58.0119 27.4824H57.3289C57.3289 29.3145 56.6394 30.9848 55.5051 32.2492L56.0135 32.7052ZM70.7438 48.7984C69.8244 40.639 63.8411 33.9569 55.8347 32.1441L55.6839 32.8102C63.4069 34.5588 69.1784 41.0043 70.0652 48.8748L70.7438 48.7984ZM72.0372 60.2771L70.7438 48.7984L70.0652 48.8748L71.3586 60.3536L72.0372 60.2771ZM72.0873 61.1522C72.0868 60.8633 72.0703 60.5713 72.0372 60.2771L71.3586 60.3536C71.3889 60.6228 71.4039 60.8896 71.4044 61.1534L72.0873 61.1522ZM72.3612 60.8114H71.7458V61.4943H72.3612V60.8114ZM76.7181 65.1682C76.7181 62.762 74.7674 60.8114 72.3612 60.8114V61.4943C74.3903 61.4943 76.0352 63.1392 76.0352 65.1682H76.7181ZM72.9876 69.462C75.1319 69.1691 76.7181 67.3284 76.7181 65.1682H76.0352C76.0352 66.9911 74.6972 68.5392 72.8951 68.7854L72.9876 69.462ZM27.4022 69.4488C44.894 71.7715 55.9334 71.7914 72.9876 69.462L72.8951 68.7854C55.9037 71.1062 44.9256 71.0868 27.4921 68.7718L27.4022 69.4488ZM23.6585 65.1592C23.6585 67.3231 25.2538 69.1635 27.4022 69.4488L27.4921 68.7718C25.6865 68.5321 24.3415 66.9841 24.3415 65.1592H23.6585ZM28.0064 60.8114C25.6051 60.8114 23.6585 62.758 23.6585 65.1592H24.3415C24.3415 63.1351 25.9823 61.4943 28.0064 61.4943V60.8114ZM28.6306 60.8114H28.0064V61.4943H28.6306V60.8114ZM28.3393 60.2771C28.3061 60.5713 28.2897 60.8633 28.2892 61.1522L28.9721 61.1534C28.9726 60.8896 28.9876 60.6228 29.0179 60.3536L28.3393 60.2771ZM29.6327 48.7984L28.3393 60.2771L29.0179 60.3536L30.3113 48.8748L29.6327 48.7984ZM44.5414 32.1442C36.5352 33.9571 30.552 40.6391 29.6327 48.7984L30.3113 48.8748C31.1981 41.0044 36.9694 34.559 44.6922 32.8103L44.5414 32.1442ZM42.3642 27.4824C42.3642 29.4893 43.1203 31.3205 44.3627 32.7053L44.871 32.2492C43.7367 30.9849 43.0471 29.3146 43.0471 27.4824H42.3642Z" fill="url(#paint1_linear_534_10343)" mask="url(#path-2-inside-1_534_10343)"/>
</g>
<defs>
<filter id="filter0_b_534_10343" x="16.5176" y="12.5176" width="67.3412" height="65.8231" filterUnits="userSpaceOnUse" color-interpolation-filters="sRGB">
<feFlood flood-opacity="0" result="BackgroundImageFix"/>
<feGaussianBlur in="BackgroundImageFix" stdDeviation="3.74119"/>
<feComposite in2="SourceAlpha" operator="in" result="effect1_backgroundBlur_534_10343"/>
<feBlend mode="normal" in="SourceGraphic" in2="effect1_backgroundBlur_534_10343" result="shape"/>
</filter>
<linearGradient id="paint0_linear_534_10343" x1="29.7889" y1="56.5645" x2="78.9497" y2="93.232" gradientUnits="userSpaceOnUse">
<stop stop-color="#A174FF"/>
<stop offset="0.434713" stop-color="#436AF5"/>
<stop offset="0.725" stop-color="#427CF3"/>
<stop offset="1" stop-color="#411859"/>
</linearGradient>
<linearGradient id="paint1_linear_534_10343" x1="33.353" y1="34.9647" x2="65.1531" y2="70.506" gradientUnits="userSpaceOnUse">
<stop stop-color="white"/>
<stop offset="1" stop-color="white" stop-opacity="0"/>
</linearGradient>
</defs>
</svg>
