<svg width="100" height="100" viewBox="0 0 100 100" fill="none" xmlns="http://www.w3.org/2000/svg">
<g filter="url(#filter0_b_534_9994)">
<path fill-rule="evenodd" clip-rule="evenodd" d="M36.7662 33.527V33.5212C36.7662 28.2628 41.029 24 46.2874 24H53.2119C58.4703 24 62.733 28.2628 62.733 33.5211V33.527C67.5697 33.5623 70.218 33.81 71.9573 35.5493C73.9855 37.5774 73.9855 40.8417 73.9855 47.3701V54.2946H25.5142V47.3701C25.5142 40.8417 25.5142 37.5774 27.5423 35.5493C29.2815 33.8101 31.9298 33.5623 36.7662 33.527ZM41.9596 33.5212C41.9596 31.131 43.8972 29.1934 46.2874 29.1934H53.2119C55.602 29.1934 57.5397 31.131 57.5397 33.5211L41.9596 33.5212Z" fill="url(#paint0_linear_534_9994)"/>
</g>
<g filter="url(#filter1_b_534_9994)">
<path d="M25.5142 54.2947C25.5142 48.6811 25.5142 45.8743 26.8829 43.8704C27.4343 43.0632 28.1316 42.366 28.9388 41.8146C30.9427 40.4458 33.7495 40.4458 39.3631 40.4458H60.1365C65.7501 40.4458 68.5569 40.4458 70.5609 41.8146C71.3681 42.366 72.0653 43.0632 72.6167 43.8704C73.9855 45.8743 73.9855 48.6811 73.9855 54.2947C73.9855 62.7152 73.9855 66.9254 71.9323 69.9312C71.1052 71.1421 70.0594 72.1879 68.8485 73.015C65.8427 75.0682 61.6325 75.0682 53.2121 75.0682H46.2876C37.8672 75.0682 33.6569 75.0682 30.6511 73.015C29.4402 72.1879 28.3944 71.1421 27.5673 69.9312C25.5142 66.9254 25.5142 62.7152 25.5142 54.2947Z" fill="#819FF1" fill-opacity="0.5"/>
<path d="M25.7028 54.2947C25.7028 51.4839 25.7031 49.3903 25.8729 47.7484C26.0425 46.1097 26.3793 44.9423 27.0387 43.9768C27.5769 43.189 28.2574 42.5085 29.0452 41.9704C30.0106 41.311 31.178 40.9741 32.8167 40.8046C34.4586 40.6347 36.5523 40.6345 39.3631 40.6345H60.1365C62.9473 40.6345 65.041 40.6347 66.6829 40.8046C68.3216 40.9741 69.489 41.311 70.4544 41.9704C71.2423 42.5085 71.9227 43.189 72.4609 43.9768C73.1203 44.9423 73.4572 46.1097 73.6267 47.7484C73.7966 49.3903 73.7968 51.4839 73.7968 54.2947C73.7968 58.509 73.7966 61.6552 73.5411 64.124C73.2861 66.5897 72.7781 68.3584 71.7765 69.8248C70.9627 71.0163 69.9336 72.0453 68.7421 72.8592C67.2757 73.8608 65.507 74.3688 63.0413 74.6238C60.5725 74.8792 57.4263 74.8795 53.2121 74.8795H46.2876C42.0734 74.8795 38.9272 74.8792 36.4583 74.6238C33.9927 74.3688 32.2239 73.8608 30.7575 72.8592C29.5661 72.0453 28.537 71.0163 27.7231 69.8248C26.7215 68.3584 26.2136 66.5897 25.9585 64.124C25.7031 61.6552 25.7028 58.509 25.7028 54.2947Z" stroke="url(#paint1_linear_534_9994)" stroke-width="0.37736"/>
</g>
<g filter="url(#filter2_b_534_9994)">
<rect x="56.8408" y="47.126" width="3.32644" height="13.9711" rx="1.66322" transform="rotate(90 56.8408 47.126)" fill="url(#paint2_linear_534_9994)" fill-opacity="0.9"/>
<rect x="56.6899" y="47.2769" width="3.02456" height="13.6692" rx="1.51228" transform="rotate(90 56.6899 47.2769)" stroke="url(#paint3_linear_534_9994)" stroke-width="0.301888"/>
</g>
<defs>
<filter id="filter0_b_534_9994" x="17.6589" y="16.1447" width="64.1818" height="46.005" filterUnits="userSpaceOnUse" color-interpolation-filters="sRGB">
<feFlood flood-opacity="0" result="BackgroundImageFix"/>
<feGaussianBlur in="BackgroundImageFix" stdDeviation="3.92765"/>
<feComposite in2="SourceAlpha" operator="in" result="effect1_backgroundBlur_534_9994"/>
<feBlend mode="normal" in="SourceGraphic" in2="effect1_backgroundBlur_534_9994" result="shape"/>
</filter>
<filter id="filter1_b_534_9994" x="17.6589" y="32.5905" width="64.1818" height="50.3331" filterUnits="userSpaceOnUse" color-interpolation-filters="sRGB">
<feFlood flood-opacity="0" result="BackgroundImageFix"/>
<feGaussianBlur in="BackgroundImageFix" stdDeviation="3.92765"/>
<feComposite in2="SourceAlpha" operator="in" result="effect1_backgroundBlur_534_9994"/>
<feBlend mode="normal" in="SourceGraphic" in2="effect1_backgroundBlur_534_9994" result="shape"/>
</filter>
<filter id="filter2_b_534_9994" x="34.6642" y="38.9205" width="30.3821" height="19.7376" filterUnits="userSpaceOnUse" color-interpolation-filters="sRGB">
<feFlood flood-opacity="0" result="BackgroundImageFix"/>
<feGaussianBlur in="BackgroundImageFix" stdDeviation="4.10272"/>
<feComposite in2="SourceAlpha" operator="in" result="effect1_backgroundBlur_534_9994"/>
<feBlend mode="normal" in="SourceGraphic" in2="effect1_backgroundBlur_534_9994" result="shape"/>
</filter>
<linearGradient id="paint0_linear_534_9994" x1="15.8095" y1="29.1133" x2="68.3226" y2="91.7819" gradientUnits="userSpaceOnUse">
<stop stop-color="#A174FF"/>
<stop offset="0.434713" stop-color="#436AF5"/>
<stop offset="0.725" stop-color="#427CF3"/>
<stop offset="1" stop-color="#411859"/>
</linearGradient>
<linearGradient id="paint1_linear_534_9994" x1="22.0519" y1="43.5933" x2="79.0322" y2="84.7819" gradientUnits="userSpaceOnUse">
<stop stop-color="white"/>
<stop offset="1" stop-color="white" stop-opacity="0"/>
</linearGradient>
<linearGradient id="paint2_linear_534_9994" x1="62.661" y1="45.477" x2="60.5089" y2="59.0925" gradientUnits="userSpaceOnUse">
<stop stop-color="white" stop-opacity="0"/>
<stop offset="0.979167" stop-color="white"/>
</linearGradient>
<linearGradient id="paint3_linear_534_9994" x1="58.504" y1="47.126" x2="58.504" y2="61.097" gradientUnits="userSpaceOnUse">
<stop stop-color="white" stop-opacity="0"/>
<stop offset="1" stop-color="white"/>
</linearGradient>
</defs>
</svg>
