<svg width="100" height="100" viewBox="0 0 100 100" fill="none" xmlns="http://www.w3.org/2000/svg">
<circle cx="36.6419" cy="68.1048" r="7.39828" fill="url(#paint0_linear_534_10040)"/>
<circle cx="57.1297" cy="68.1048" r="7.39828" fill="url(#paint1_linear_534_10040)"/>
<path fill-rule="evenodd" clip-rule="evenodd" d="M65.0395 26.1745C65.6383 24.8506 66.9568 24 68.4098 24H76.3365C78.3795 24 80.0356 25.6562 80.0356 27.6991C80.0356 29.7421 78.3795 31.3983 76.3365 31.3983H70.7964L66.7598 40.3212C65.9178 42.1826 63.7262 43.0089 61.8648 42.1669C60.0035 41.3248 59.1771 39.1333 60.0192 37.2719L65.0395 26.1745Z" fill="url(#paint2_linear_534_10040)"/>
<g filter="url(#filter0_b_534_10040)">
<path d="M22.6636 48.45C20.9795 42.0502 20.1374 38.8504 21.8033 36.6893C23.4692 34.5283 26.778 34.5283 33.3956 34.5283H60.9451C67.5627 34.5283 70.8715 34.5283 72.5374 36.6893C74.2034 38.8504 73.3613 42.0502 71.6772 48.45L68.9814 58.6937C67.935 62.6703 67.4117 64.6585 65.9145 65.8127C64.4173 66.9669 62.3613 66.9669 58.2494 66.9669H36.0913C31.9794 66.9669 29.9235 66.9669 28.4262 65.8127C26.929 64.6585 26.4058 62.6703 25.3593 58.6937L22.6636 48.45Z" fill="#819FF1" fill-opacity="0.5"/>
<path d="M22.8287 48.4065C21.9853 45.2014 21.3579 42.8157 21.1468 40.9608C20.9362 39.1104 21.1447 37.8233 21.9385 36.7936C22.7323 35.7638 23.9239 35.2347 25.7671 34.9674C27.6146 34.6995 30.0814 34.699 33.3956 34.699H60.9451C64.2593 34.699 66.7262 34.6995 68.5737 34.9674C70.4168 35.2347 71.6084 35.7638 72.4022 36.7936C73.1961 37.8233 73.4045 39.1104 73.1939 40.9608C72.9829 42.8157 72.3555 45.2014 71.512 48.4065L68.8163 58.6503C68.292 60.6425 67.9024 62.1222 67.4582 63.249C67.0157 64.3716 66.5255 65.1262 65.8103 65.6775C65.0951 66.2288 64.2406 66.5108 63.0423 66.6531C61.8396 66.7959 60.3095 66.7962 58.2494 66.7962H36.0913C34.0313 66.7962 32.5012 66.7959 31.2984 66.6531C30.1002 66.5108 29.2457 66.2288 28.5305 65.6775C27.8153 65.1262 27.3251 64.3716 26.8826 63.249C26.4384 62.1222 26.0487 60.6425 25.5244 58.6503L22.8287 48.4065Z" stroke="url(#paint3_linear_534_10040)" stroke-width="0.341459"/>
</g>
<defs>
<filter id="filter0_b_534_10040" x="13.5011" y="27.13" width="67.3386" height="47.235" filterUnits="userSpaceOnUse" color-interpolation-filters="sRGB">
<feFlood flood-opacity="0" result="BackgroundImageFix"/>
<feGaussianBlur in="BackgroundImageFix" stdDeviation="3.69914"/>
<feComposite in2="SourceAlpha" operator="in" result="effect1_backgroundBlur_534_10040"/>
<feBlend mode="normal" in="SourceGraphic" in2="effect1_backgroundBlur_534_10040" result="shape"/>
</filter>
<linearGradient id="paint0_linear_534_10040" x1="24.9383" y1="62.2958" x2="48.4463" y2="85.8037" gradientUnits="userSpaceOnUse">
<stop stop-color="#7761E0"/>
<stop offset="0.434713" stop-color="#436AF5"/>
<stop offset="0.725" stop-color="#08AFE4" stop-opacity="0.73"/>
<stop offset="1" stop-color="#411859"/>
</linearGradient>
<linearGradient id="paint1_linear_534_10040" x1="45.4261" y1="62.2958" x2="68.9341" y2="85.8037" gradientUnits="userSpaceOnUse">
<stop stop-color="#7761E0"/>
<stop offset="0.434713" stop-color="#436AF5"/>
<stop offset="0.725" stop-color="#08AFE4" stop-opacity="0.73"/>
<stop offset="1" stop-color="#411859"/>
</linearGradient>
<linearGradient id="paint2_linear_534_10040" x1="55.6158" y1="27.122" x2="87.5531" y2="53.325" gradientUnits="userSpaceOnUse">
<stop stop-color="#A174FF"/>
<stop offset="0.434713" stop-color="#436AF5"/>
<stop offset="0.725" stop-color="#427CF3"/>
<stop offset="1" stop-color="#411859"/>
</linearGradient>
<linearGradient id="paint3_linear_534_10040" x1="46.3167" y1="34.5283" x2="78.5631" y2="63.3604" gradientUnits="userSpaceOnUse">
<stop stop-color="white"/>
<stop offset="1" stop-color="white" stop-opacity="0"/>
</linearGradient>
</defs>
</svg>
