<svg width="100" height="100" viewBox="0 0 100 100" fill="none" xmlns="http://www.w3.org/2000/svg">
<path d="M24.9517 32.5025C24.9517 30.4187 24.9517 29.3768 25.3636 28.5837C25.7108 27.9154 26.2557 27.3705 26.924 27.0233C27.7171 26.6113 28.759 26.6113 30.8429 26.6113H45.6096C46.4961 26.6113 46.9393 26.6113 47.3573 26.7109C47.7127 26.7955 48.0534 26.9329 48.3681 27.1184C48.7382 27.3367 49.0575 27.6441 49.696 28.259L49.9758 28.5284C50.6143 29.1432 50.9336 29.4507 51.3037 29.6689C51.6184 29.8545 51.9591 29.9918 52.3145 30.0765C52.7325 30.176 53.1757 30.176 54.0622 30.176H68.966C71.0499 30.176 72.0918 30.176 72.8849 30.588C73.5532 30.9351 74.0981 31.4801 74.4453 32.1484C74.8572 32.9415 74.8572 33.9834 74.8572 36.0672V70.0066C74.8572 71.0485 74.8572 71.5695 74.6513 71.966C74.4777 72.3002 74.2052 72.5726 73.8711 72.7462C73.4745 72.9522 72.9536 72.9522 71.9116 72.9522H30.2538C28.3783 72.9522 27.4406 72.9522 26.7268 72.5814C26.1253 72.269 25.6349 71.7786 25.3224 71.1771C24.9517 70.4633 24.9517 69.5256 24.9517 67.6501V32.5025Z" fill="url(#paint0_linear_534_9418)"/>
<g filter="url(#filter0_b_534_9418)">
<path d="M38.1385 42.781C38.6555 41.0029 38.914 40.1138 39.5973 39.6008C40.2806 39.0879 41.2071 39.0879 43.0602 39.0879H75.6733C78.5913 39.0879 80.0503 39.0879 80.8191 40.0354C81.5879 40.9829 81.2873 42.4106 80.6862 45.266L75.7138 68.8849C75.3036 70.8334 75.0985 71.8076 74.3931 72.38C73.6876 72.9524 72.692 72.9524 70.7009 72.9524H28.5166C30.3604 70.9472 30.3604 68.9421 32.2042 62.9267C33.5197 58.635 36.5245 48.3327 38.1385 42.781Z" fill="#819FF1" fill-opacity="0.5"/>
<path d="M38.3025 42.8287C38.5621 41.9357 38.7529 41.2802 38.9628 40.7829C39.1709 40.2897 39.3911 39.9691 39.6998 39.7374C40.0084 39.5057 40.3778 39.3838 40.9099 39.3216C41.4464 39.2589 42.1296 39.2586 43.0602 39.2586H75.6733C77.1376 39.2586 78.2172 39.259 79.0279 39.3753C79.8339 39.491 80.3409 39.7171 80.6865 40.143C81.0321 40.5689 81.1489 41.1116 81.096 41.9242C81.0428 42.7414 80.8208 43.798 80.5191 45.2309L75.5467 68.8498C75.3407 69.8282 75.1891 70.5468 75.0026 71.0933C74.8175 71.6354 74.604 71.989 74.2855 72.2474C73.967 72.5058 73.577 72.6419 73.0084 72.7114C72.4352 72.7814 71.7007 72.7817 70.7009 72.7817H28.8933C29.6754 71.8443 30.1019 70.8693 30.5236 69.4934C30.7155 68.8675 30.9074 68.155 31.1311 67.3245C31.1773 67.1526 31.225 66.9758 31.2743 66.7936C31.5621 65.7291 31.9073 64.478 32.3674 62.9767C33.6834 58.6835 36.6886 48.3799 38.3025 42.8287Z" stroke="url(#paint1_linear_534_9418)" stroke-width="0.341459"/>
</g>
<path d="M32.2176 31.9586C32.2176 31.0497 32.9545 30.3129 33.8634 30.3129H40.9928C41.9017 30.3129 42.6385 31.0497 42.6385 31.9586C42.6385 32.8675 41.9017 33.6044 40.9928 33.6044H33.8634C32.9545 33.6044 32.2176 32.8675 32.2176 31.9586Z" fill="url(#paint2_linear_534_9418)" fill-opacity="0.9" stroke="url(#paint3_linear_534_9418)" stroke-width="0.273167"/>
<defs>
<filter id="filter0_b_534_9418" x="21.1983" y="31.7696" width="67.3988" height="48.5008" filterUnits="userSpaceOnUse" color-interpolation-filters="sRGB">
<feFlood flood-opacity="0" result="BackgroundImageFix"/>
<feGaussianBlur in="BackgroundImageFix" stdDeviation="3.65914"/>
<feComposite in2="SourceAlpha" operator="in" result="effect1_backgroundBlur_534_9418"/>
<feBlend mode="normal" in="SourceGraphic" in2="effect1_backgroundBlur_534_9418" result="shape"/>
</filter>
<linearGradient id="paint0_linear_534_9418" x1="14.9598" y1="34.433" x2="94.6267" y2="98.4249" gradientUnits="userSpaceOnUse">
<stop stop-color="#A174FF"/>
<stop offset="0.434713" stop-color="#436AF5"/>
<stop offset="0.725" stop-color="#427CF3"/>
<stop offset="1" stop-color="#411859"/>
</linearGradient>
<linearGradient id="paint1_linear_534_9418" x1="25.8431" y1="41.5068" x2="44.744" y2="87.0861" gradientUnits="userSpaceOnUse">
<stop stop-color="white"/>
<stop offset="0.765625" stop-color="white" stop-opacity="0"/>
</linearGradient>
<linearGradient id="paint2_linear_534_9418" x1="31.2683" y1="29.9381" x2="45.9046" y2="34.2625" gradientUnits="userSpaceOnUse">
<stop stop-color="white"/>
<stop offset="1" stop-color="white" stop-opacity="0"/>
</linearGradient>
<linearGradient id="paint3_linear_534_9418" x1="30.2704" y1="30.936" x2="37.4281" y2="33.741" gradientUnits="userSpaceOnUse">
<stop stop-color="white"/>
<stop offset="1" stop-color="white" stop-opacity="0"/>
</linearGradient>
</defs>
</svg>
