<svg width="36" height="36" viewBox="0 0 36 36" fill="none" xmlns="http://www.w3.org/2000/svg">
<path d="M8.98242 11.7009C8.98242 10.9507 8.98242 10.5756 9.13073 10.2901C9.25571 10.0495 9.45188 9.85337 9.69248 9.72839C9.97798 9.58008 10.3531 9.58008 11.1033 9.58008H16.4193C16.7384 9.58008 16.898 9.58008 17.0485 9.61592C17.1764 9.64638 17.299 9.69584 17.4123 9.76263C17.5456 9.8412 17.6605 9.95188 17.8904 10.1732L17.9911 10.2702C18.221 10.4916 18.3359 10.6022 18.4692 10.6808C18.5824 10.7476 18.7051 10.7971 18.833 10.8275C18.9835 10.8634 19.1431 10.8634 19.4622 10.8634H24.8276C25.5778 10.8634 25.9529 10.8634 26.2384 11.0117C26.479 11.1367 26.6751 11.3328 26.8001 11.5734C26.9484 11.8589 26.9484 12.234 26.9484 12.9842V25.2024C26.9484 25.5775 26.9484 25.765 26.8743 25.9078C26.8118 26.0281 26.7137 26.1262 26.5934 26.1886C26.4506 26.2628 26.2631 26.2628 25.888 26.2628H10.8912C10.216 26.2628 9.87843 26.2628 9.62147 26.1293C9.40494 26.0168 9.22838 25.8403 9.1159 25.6237C8.98242 25.3668 8.98242 25.0292 8.98242 24.354V11.7009Z" fill="url(#paint0_linear_694_3224)"/>
<g filter="url(#filter0_b_694_3224)">
<path d="M13.7295 15.4013C13.9156 14.7612 14.0087 14.4411 14.2547 14.2564C14.5007 14.0718 14.8342 14.0718 15.5013 14.0718H27.242C28.2925 14.0718 28.8177 14.0718 29.0945 14.4129C29.3713 14.754 29.2631 15.268 29.0467 16.2959L27.2566 24.7987C27.1089 25.5002 27.0351 25.8509 26.7811 26.0569C26.5272 26.263 26.1688 26.263 25.452 26.263H10.2656C10.9294 25.5411 10.9294 24.8193 11.5932 22.6538C12.0667 21.1087 13.1485 17.3999 13.7295 15.4013Z" fill="#819FF1" fill-opacity="0.5"/>
<path d="M13.7885 15.4185C13.882 15.097 13.9507 14.861 14.0263 14.682C14.1012 14.5044 14.1805 14.389 14.2916 14.3056C14.4027 14.2222 14.5357 14.1783 14.7272 14.1559C14.9203 14.1333 15.1663 14.1332 15.5013 14.1332H27.242C27.7692 14.1332 28.1579 14.1334 28.4497 14.1753C28.7399 14.2169 28.9224 14.2983 29.0468 14.4516C29.1712 14.6049 29.2132 14.8003 29.1942 15.0928C29.1751 15.387 29.0951 15.7674 28.9865 16.2832L27.1965 24.7861C27.1223 25.1383 27.0677 25.397 27.0006 25.5937C26.9339 25.7889 26.8571 25.9162 26.7424 26.0092C26.6278 26.1022 26.4874 26.1512 26.2827 26.1762C26.0763 26.2014 25.8119 26.2015 25.452 26.2015H10.4012C10.6828 25.8641 10.8363 25.5131 10.9882 25.0178C11.0572 24.7924 11.1263 24.536 11.2068 24.2369C11.2235 24.1751 11.2406 24.1114 11.2584 24.0458C11.362 23.6626 11.4863 23.2122 11.6519 22.6718C12.1257 21.1262 13.2075 17.4169 13.7885 15.4185Z" stroke="url(#paint1_linear_694_3224)" stroke-width="0.122925"/>
</g>
<path d="M11.598 11.5049C11.598 11.1777 11.8633 10.9125 12.1905 10.9125H14.757C15.0843 10.9125 15.3495 11.1777 15.3495 11.5049C15.3495 11.8321 15.0843 12.0974 14.757 12.0974H12.1905C11.8633 12.0974 11.598 11.8321 11.598 11.5049Z" fill="url(#paint2_linear_694_3224)" fill-opacity="0.9" stroke="url(#paint3_linear_694_3224)" stroke-width="0.0983402"/>
<defs>
<filter id="filter0_b_694_3224" x="7.63104" y="11.4372" width="24.2633" height="17.4606" filterUnits="userSpaceOnUse" color-interpolation-filters="sRGB">
<feFlood flood-opacity="0" result="BackgroundImageFix"/>
<feGaussianBlur in="BackgroundImageFix" stdDeviation="1.31729"/>
<feComposite in2="SourceAlpha" operator="in" result="effect1_backgroundBlur_694_3224"/>
<feBlend mode="normal" in="SourceGraphic" in2="effect1_backgroundBlur_694_3224" result="shape"/>
</filter>
<linearGradient id="paint0_linear_694_3224" x1="5.38535" y1="12.3959" x2="34.0654" y2="35.433" gradientUnits="userSpaceOnUse">
<stop stop-color="#A174FF"/>
<stop offset="0.434713" stop-color="#436AF5"/>
<stop offset="0.725" stop-color="#427CF3"/>
<stop offset="1" stop-color="#411859"/>
</linearGradient>
<linearGradient id="paint1_linear_694_3224" x1="9.30316" y1="14.9426" x2="16.1075" y2="31.3511" gradientUnits="userSpaceOnUse">
<stop stop-color="white"/>
<stop offset="0.765625" stop-color="white" stop-opacity="0"/>
</linearGradient>
<linearGradient id="paint2_linear_694_3224" x1="11.2562" y1="10.7775" x2="16.5253" y2="12.3343" gradientUnits="userSpaceOnUse">
<stop stop-color="white"/>
<stop offset="1" stop-color="white" stop-opacity="0"/>
</linearGradient>
<linearGradient id="paint3_linear_694_3224" x1="10.897" y1="11.1368" x2="13.4738" y2="12.1466" gradientUnits="userSpaceOnUse">
<stop stop-color="white"/>
<stop offset="1" stop-color="white" stop-opacity="0"/>
</linearGradient>
</defs>
</svg>
