<svg width="24" height="24" viewBox="0 0 24 24" fill="none" xmlns="http://www.w3.org/2000/svg">
<path d="M17.3535 9.76438L12.3535 14.9714C12.3071 15.0198 12.252 15.0582 12.1913 15.0844C12.1306 15.1106 12.0655 15.1241 11.9998 15.1241C11.9341 15.1241 11.869 15.1106 11.8083 15.0844C11.7476 15.0582 11.6925 15.0198 11.646 14.9714L6.64604 9.76438C6.55222 9.66668 6.49951 9.53416 6.49951 9.39599C6.49951 9.25781 6.55222 9.1253 6.64604 9.02759C6.73986 8.92989 6.86711 8.875 6.99979 8.875C7.13247 8.875 7.25972 8.92989 7.35354 9.02759L11.9998 13.8668L16.646 9.02759C16.6925 8.97922 16.7476 8.94084 16.8083 8.91466C16.869 8.88848 16.9341 8.875 16.9998 8.875C17.0655 8.875 17.1305 8.88848 17.1912 8.91466C17.2519 8.94084 17.3071 8.97922 17.3535 9.02759C17.4 9.07597 17.4368 9.13341 17.462 9.19661C17.4871 9.25982 17.5001 9.32757 17.5001 9.39599C17.5001 9.46441 17.4871 9.53215 17.462 9.59536C17.4368 9.65857 17.4 9.71601 17.3535 9.76438Z" fill="#606065"/>
</svg>
