<svg width="6" height="9" viewBox="0 0 6 9" fill="none" xmlns="http://www.w3.org/2000/svg">
<g clip-path="url(#clip0_518_21688)">
<path d="M0.613947 8.50996C0.535614 8.43732 0.473124 8.34929 0.430389 8.25138C0.387655 8.15347 0.365597 8.04779 0.365597 7.94096C0.365597 7.83413 0.387655 7.72845 0.430389 7.63054C0.473124 7.53263 0.535614 7.4446 0.613947 7.37196L3.70895 4.49896L0.612947 1.62596C0.462171 1.4858 0.373252 1.29147 0.36575 1.08575C0.358249 0.880019 0.43278 0.679738 0.572947 0.528962C0.713113 0.378187 0.907435 0.289268 1.11316 0.281766C1.31889 0.274265 1.51917 0.348795 1.66995 0.488962L5.20795 3.76596C5.30913 3.85959 5.38987 3.97312 5.44508 4.09943C5.5003 4.22574 5.5288 4.36211 5.5288 4.49996C5.5288 4.63782 5.5003 4.77418 5.44508 4.90049C5.38987 5.02681 5.30913 5.14034 5.20795 5.23396L1.66895 8.50896C1.52547 8.64194 1.33707 8.71582 1.14145 8.71582C0.945825 8.71582 0.757421 8.64294 0.613947 8.50996Z" fill="#304AD6"/>
</g>
<defs>
<clipPath id="clip0_518_21688">
<rect width="6" height="9" fill="white"/>
</clipPath>
</defs>
</svg>
