<svg width="24" height="24" viewBox="0 0 24 24" fill="none" xmlns="http://www.w3.org/2000/svg">
<g clip-path="url(#clip0_177_4947)">
<path d="M11.8818 17.0383C12.227 17.0383 12.5068 16.7585 12.5068 16.4133C12.5068 16.0682 12.227 15.7883 11.8818 15.7883C11.5367 15.7883 11.2568 16.0682 11.2568 16.4133C11.2568 16.7585 11.5367 17.0383 11.8818 17.0383Z" fill="#5E5E5E"/>
<path d="M12 13.5V12.75C13.6566 12.75 15 11.5744 15 10.125C15 8.67562 13.6566 7.5 12 7.5C10.3434 7.5 9 8.67562 9 10.125V10.5" stroke="#5E5E5E" stroke-linecap="round" stroke-linejoin="round"/>
<path d="M12 21C16.9706 21 21 16.9706 21 12C21 7.02944 16.9706 3 12 3C7.02944 3 3 7.02944 3 12C3 16.9706 7.02944 21 12 21Z" stroke="#5E5E5E" stroke-linecap="round" stroke-linejoin="round"/>
</g>
<defs>
<clipPath id="clip0_177_4947">
<rect width="24" height="24" fill="white"/>
</clipPath>
</defs>
</svg>
