<svg width="33" height="32" viewBox="0 0 33 32" fill="none" xmlns="http://www.w3.org/2000/svg">
<path d="M16.5 31.1111C25.6127 31.1111 33 24.1467 33 15.5556C33 6.96446 25.6127 0 16.5 0C7.3873 0 0 6.96446 0 15.5556C0 24.1467 7.3873 31.1111 16.5 31.1111Z" fill="#2B2B2B"/>
<path fill-rule="evenodd" clip-rule="evenodd" d="M20.8446 7.26134C21.0914 7.01453 21.4916 7.01453 21.7384 7.26133L24.678 10.2009C24.9248 10.4477 24.9248 10.8479 24.678 11.0947L13.7601 22.0125C13.6719 22.1007 13.5595 22.1608 13.4372 22.1853L8.92613 23.0875C8.88191 23.0964 8.84292 23.0574 8.85176 23.0132L9.75398 18.5021C9.77845 18.3797 9.83858 18.2674 9.92681 18.1791L20.8446 7.26134Z" stroke="white" stroke-width="0.7"/>
<path d="M18.4165 9.68945L22.2498 13.5228" stroke="white" stroke-width="0.7"/>
<path d="M16.5 23.1058H24.1667" stroke="white" stroke-width="0.7" stroke-linecap="round"/>
</svg>
