<svg width="20" height="20" viewBox="0 0 20 20" fill="none" xmlns="http://www.w3.org/2000/svg">
<path fill-rule="evenodd" clip-rule="evenodd" d="M18.0493 7.59019C18.2141 7.28688 18.1018 6.90742 17.7984 6.74266C17.4951 6.5779 17.1157 6.69022 16.9509 6.99354C16.3628 8.07622 15.5899 9.026 14.5023 9.70882C13.4168 10.3904 11.9739 10.8335 10.0001 10.8335C8.02643 10.8335 6.58567 10.3904 5.50123 9.70895C4.41455 9.02611 3.64125 8.07602 3.04849 6.99201C2.88288 6.68915 2.50311 6.57789 2.20026 6.7435C1.8974 6.90911 1.78614 7.28887 1.95175 7.59173C2.61434 8.80344 3.51483 9.93198 4.81852 10.7562L3.72472 11.85C3.48065 12.0941 3.48065 12.4898 3.72472 12.7339C3.9688 12.978 4.36453 12.978 4.60861 12.7339L5.98277 11.3597C6.94413 11.7602 8.06447 12.0096 9.375 12.0695V14.3753C9.375 14.7205 9.65482 15.0003 10 15.0003C10.3452 15.0003 10.625 14.7205 10.625 14.3753V12.0695C11.9352 12.0097 13.056 11.7605 14.0179 11.3604L15.3914 12.7339C15.6355 12.978 16.0312 12.978 16.2753 12.7339C16.5194 12.4898 16.5194 12.0941 16.2753 11.85L15.1828 10.7575C16.4886 9.93316 17.3901 8.80382 18.0493 7.59019Z" fill="#80868B"/>
</svg>
