<svg width="20" height="20" viewBox="0 0 20 20" fill="none" xmlns="http://www.w3.org/2000/svg">
<path fill-rule="evenodd" clip-rule="evenodd" d="M2.20179 12.4244C1.89847 12.2596 1.78615 11.8802 1.95091 11.5768C2.61014 10.3632 3.51156 9.23391 4.81738 8.40955L3.72486 7.31702C3.48078 7.07295 3.48078 6.67722 3.72486 6.43314C3.96894 6.18906 4.36467 6.18906 4.60874 6.43314L5.98225 7.80664C6.94416 7.40654 8.06499 7.15735 9.37514 7.09752L9.37514 4.79175C9.37514 4.44657 9.65496 4.16675 10.0001 4.16675C10.3453 4.16675 10.6251 4.44657 10.6251 4.79175V7.09753C11.9357 7.15739 13.056 7.40681 14.0174 7.80727L15.3915 6.43314C15.6356 6.18906 16.0313 6.18906 16.2754 6.43314C16.5195 6.67722 16.5195 7.07295 16.2754 7.31702L15.1817 8.41078C16.4854 9.23502 17.3859 10.3636 18.0485 11.5753C18.2141 11.8782 18.1028 12.2579 17.8 12.4235C17.4971 12.5891 17.1174 12.4779 16.9518 12.175C16.359 11.091 15.5857 10.1409 14.499 9.45808C13.4146 8.77664 11.9738 8.3335 10.0001 8.3335C8.02634 8.3335 6.58342 8.77668 5.4979 9.45821C4.41032 10.141 3.63743 11.0908 3.04932 12.1735C2.88456 12.4768 2.50511 12.5891 2.20179 12.4244ZM11.4584 12.7082C11.4584 13.5136 10.8055 14.1665 10 14.1665C9.19462 14.1665 8.5417 13.5136 8.5417 12.7082C8.5417 11.9028 9.19462 11.2499 10 11.2499C10.8055 11.2499 11.4584 11.9028 11.4584 12.7082ZM12.7084 12.7082C12.7084 14.204 11.4958 15.4165 10 15.4165C8.50426 15.4165 7.2917 14.204 7.2917 12.7082C7.2917 11.2124 8.50426 9.99988 10 9.99988C11.4958 9.99988 12.7084 11.2124 12.7084 12.7082Z" fill="#80868B"/>
</svg>
